<svg width="634" height="680" viewBox="0 0 634 680" fill="none" xmlns="http://www.w3.org/2000/svg">
<path fill-rule="evenodd" clip-rule="evenodd" d="M634 439.513V240.487C634 188.954 606.302 141.018 561.697 115.207L401.084 22.4838C375.184 7.55456 346.047 0 317 0C287.953 0 258.816 7.46462 232.916 22.4838L72.303 115.207C27.6982 140.928 0 188.954 0 240.487V439.513C0 491.046 27.6982 538.982 72.303 564.793L232.916 657.516C258.366 672.176 287.413 680 317 680C346.587 680 375.634 672.266 401.084 657.516L561.697 564.793C606.302 539.072 634 491.046 634 439.513ZM169.876 210.988L290.471 141.378C306.928 133.284 326.173 133.374 342.54 141.468C368.979 156.667 395.418 171.866 421.947 186.975C445.868 203.254 458.009 197.947 478.243 183.917L346.227 108.012C328.061 97.4897 305.759 97.3998 287.503 107.832L286.064 108.642L121.584 202.714L86.6916 182.479L269.877 77.2543C284.356 68.9803 300.543 64.7533 316.64 64.7533C332.738 64.7533 349.285 68.9803 363.853 77.4342L511.786 163.322L547.938 184.367L483.818 221.241C474.556 226.097 451.894 229.245 442.541 221.6C449.106 236.799 437.955 248.941 425.185 254.966L359.087 292.829C334.266 307.039 303.78 307.219 278.87 293.189L226.621 263.78L185.883 240.127L152.7 220.881L169.876 210.988ZM346.407 259.553C337.864 264.499 328.331 266.928 318.709 266.928C309.086 266.928 299.913 264.589 291.46 259.733L223.024 221.151L304.23 174.474C311.964 169.978 321.586 170.067 329.32 174.474L387.864 208.47C401.084 215.844 413.314 223.039 387.504 236.08C373.925 243.994 360.256 251.729 346.407 259.463V259.553ZM247.575 630.446L88.6701 538.712C52.9682 518.117 30.7557 479.714 30.7557 438.434V241.476C30.7557 200.286 52.9682 161.793 88.6701 141.198L247.485 49.4644C268.528 37.3231 292.539 30.9377 317 30.9377C341.461 30.9377 365.472 37.3231 386.515 49.4644L545.42 141.198C581.122 161.793 603.334 200.196 603.334 241.476V438.434C603.334 479.624 581.122 518.027 545.42 538.712L386.515 630.446C365.112 642.857 341.011 649.062 317 649.062C292.989 649.062 268.888 642.857 247.485 630.446H247.575ZM68.8857 433.398L68.436 211.797L253.87 319.45C268.348 327.814 280.039 339.865 288.133 353.985C296.226 368.105 300.633 384.203 300.633 401.021C300.453 472.789 300.273 543.928 300.093 615.067L264.751 594.382L265.381 400.841C265.381 379.976 254.229 360.46 236.154 349.938L104.048 273.223V308.837L204.499 367.115C213.761 372.512 221.315 380.246 226.531 389.239C231.747 398.323 234.625 408.665 234.535 419.458L233.276 575.855L109.084 503.187C84.2635 488.618 68.9756 462.087 68.8857 433.308V433.398ZM131.836 475.577C114.749 465.684 104.228 447.338 104.228 427.642V349.758L186.783 397.783C194.517 402.28 199.283 410.644 199.283 419.548L199.013 514.699L131.836 475.667V475.577ZM334.356 613.268L335.346 398.683C335.525 358.572 353.871 332.4 388.673 313.604L565.474 215.215L564.845 482.862L531.841 501.029L529.682 277.81L394.609 354.075C376.713 366.846 369.519 382.404 369.608 403.359L444.789 360.91C451.984 356.863 458.458 352.456 466.462 350.298C486.426 344.991 494.88 353.895 495.329 373.231L494.97 520.995C479.772 529.628 339.302 615.427 334.446 613.268H334.356ZM369.698 551.752L369.968 442.391L446.498 398.683C454.052 394.096 460.887 398.683 460.797 407.946L461.516 500.759L369.698 551.842V551.752Z" fill="#1B1B1B"/>
</svg>
