<svg width="80" height="80" viewBox="0 0 80 80" fill="none" xmlns="http://www.w3.org/2000/svg">
<path d="M39.0973 0C40.2628 0.324413 48.9474 5.04633 50.421 5.83001L76.8964 19.885C77.0471 33.0037 77.015 46.605 76.9167 59.722C65.6969 65.3666 52.5981 72.9246 41.4959 79.1836C40.6533 79.7673 39.916 80.3332 38.8941 79.7638C35.537 77.8933 32.0329 76.1824 28.6893 74.3014C19.856 69.3331 10.8461 64.6255 2 59.6951C2.29638 46.7998 2.05934 32.9162 2.06313 19.9495L39.0973 0ZM39.0524 1.62276C29.2662 6.55551 19.7277 12.289 9.97763 17.3204C8.07517 18.302 6.08266 19.3494 4.24265 20.4422C13.1312 24.7324 22.01 30.1871 30.8309 34.7122C32.0798 35.3527 38.7875 39.0759 39.6576 39.3366C51.396 33.217 62.9743 26.3771 74.7034 20.3345L51.9632 8.25598C48.7307 6.52624 42.1797 2.79601 39.0524 1.62276ZM40.1386 40.7415C40.1393 43.762 39.9767 77.4866 40.3559 78.0529C51.9932 71.8594 63.8796 64.7115 75.5014 58.84C75.528 55.1269 75.7164 21.9197 75.3231 21.5099L40.1386 40.7415ZM3.55812 58.8519C11.7228 63.5752 20.2983 67.9765 28.5434 72.5936C31.8497 74.4449 35.5473 76.1691 38.7654 78.0828L38.7754 40.5555C28.9598 34.9791 18.6539 29.9864 8.83146 24.3895C7.16742 23.4414 5.28634 22.4727 3.54432 21.6824C3.51361 33.5647 3.19102 47.0664 3.55812 58.8519Z" fill="#F9F7F9" fill-opacity="0.32"/>
</svg>
