<svg width="80" height="80" viewBox="0 0 80 80" fill="none" xmlns="http://www.w3.org/2000/svg">
<path d="M39.7837 1C40.6259 1.1317 43.9308 3.79065 45.0985 4.50393C53.9849 9.93101 61.727 11.7033 72 12.1532C70.9652 34.0849 70.9619 59.9325 50.3137 73.6519C47.1797 75.7343 43.581 77.3517 40.1963 79C39.4843 78.9637 38.4281 78.3542 37.7482 78.0747C10.7221 66.9548 8.14186 38.5333 8 12.1841C21.3159 11.4248 29.2423 9.39982 39.7837 1ZM54.4682 31.254C57.0792 31.5849 67.5238 32.9204 69.3997 32.4097L69.5399 32.2699C70.2075 27.0972 70.6081 18.8576 70.5413 13.4695C65.3274 13.2468 59.9298 12.3921 55.01 10.6083C55.0564 15.9971 55.2029 26.133 54.4682 31.254ZM9.41598 13.4756C9.46571 19.88 9.83823 26.2781 10.5322 32.6446C15.7298 32.4843 20.1299 32.0573 25.2487 30.9902C25.0308 26.9195 24.9166 22.844 24.9069 18.7676C24.8936 17.5497 24.9116 11.8787 24.6906 11.036C18.7734 12.4018 15.5162 13.0899 9.41598 13.4756ZM39.0293 3.3485C33.9733 7.21663 31.9277 8.01794 26.2258 10.559C26.2315 17.2775 26.2461 24.0418 26.6894 30.7483C31.7251 29.7911 34.4456 28.974 39.3067 27.364C39.2803 25.25 39.4212 3.74966 39.0293 3.3485ZM36.9965 76.0719C33.0022 70.7366 30.0027 61.6033 28.6825 55.1156C23.4062 54.3297 20.0959 53.7861 14.908 52.417C18.3217 62.7685 25.5435 70.199 35.0958 75.3304C35.7217 75.6667 36.3018 75.915 36.9965 76.0719ZM40.717 28.8591L40.735 53.988C42.6504 53.941 48.7038 53.9379 50.1255 53.3486C50.3718 52.5937 50.4933 52.2127 50.6385 51.4359C51.6977 46.9133 52.9618 36.8497 53.0602 32.408C48.4905 31.3322 45.1532 30.5165 40.717 28.8591ZM17.1701 51.6361C21.3927 52.6387 24.1008 53.1349 28.4045 53.5868C26.8093 47.4633 25.7959 39.0796 25.4006 32.6808C24.7838 32.4897 24.7467 32.5475 24.1292 32.6819C19.6673 33.3666 15.2171 33.882 10.6954 33.8386C11.8227 40.0791 11.9055 44.2523 14.1977 50.5553C15.1877 50.9508 16.1404 51.3653 17.1701 51.6361ZM29.4142 51.8734C29.5411 52.7835 29.4269 52.9962 29.937 53.6655C32.387 54.0418 36.7798 53.9836 39.3361 53.9531C39.29 51.6533 39.4179 29.4007 39.0634 28.8742C34.5878 30.3747 31.3062 31.1821 26.6774 32.1809C27.58 39.5778 27.7562 44.1549 29.4142 51.8734ZM43.4972 75.9624C52.1637 71.6689 58.9441 65.7147 63.0549 56.7857C63.4197 55.9928 65.0002 52.9287 64.9168 52.3232C60.7363 53.6544 55.6879 54.626 51.3038 54.8108C50.1241 60.2554 48.6638 65.5931 46.3092 70.667C45.8271 71.7059 43.4475 75.2911 43.4972 75.9624ZM40.704 55.3581C40.703 57.7264 40.4182 74.9209 40.9543 76.2903C44.9896 71.7203 47.2902 64.6732 48.9478 58.9004C49.1952 58.0389 49.8541 55.771 49.7176 54.9597C46.8132 55.1179 43.5867 55.3611 40.704 55.3581ZM54.4739 32.5155C53.9708 38.9193 53.1761 47.4152 51.6443 53.5637C56.495 52.9347 59.9155 52.2913 64.6798 51.0388C67.2801 49.668 68.889 36.76 69.3296 33.6777C66.3988 34.0036 57.3759 33.3699 54.4739 32.5155ZM53.5736 10.3446C48.3987 8.04247 45.4479 6.39113 40.6829 3.25812L40.736 27.4846C42.7084 28.1888 51.2631 31.1555 53.0793 30.7762L53.2438 30.5588C53.5863 23.7972 53.5523 17.1015 53.5736 10.3446ZM39.2283 76.5074C39.4402 69.4918 39.0801 62.2907 39.3344 55.4038C36.9694 55.3645 32.1754 55.4146 30.0327 55.0161C31.3963 60.1072 35.01 73.1667 39.2283 76.5074Z" fill="#F9F7F9"/>
</svg>
