<svg width="80" height="80" viewBox="0 0 80 80" fill="none" xmlns="http://www.w3.org/2000/svg">
<path d="M36.658 3.10966C57.3468 1.53707 75.38 17.0643 76.8978 37.757C78.4156 58.4501 62.8408 76.4421 42.1441 77.9051C21.5244 79.3627 3.61422 63.8588 2.10212 43.2431C0.590064 22.6274 16.0466 4.67626 36.658 3.10966ZM5.43293 51.9481C6.06328 53.5789 7.12116 57.1994 8.59989 57.9173C9.38375 58.2979 10.2731 57.8794 11.0742 57.6033C27.0202 51.4665 56.4566 28.3883 61.9995 11.906C60.3392 10.2195 58.7214 9.36478 56.655 8.23401C48.5031 23.4463 21.2925 46.4939 5.43293 51.9481ZM42.6422 4.55568C30.5499 11.0055 19.5169 21.7212 8.5036 29.8652C2.4435 34.3464 3.30192 35.2121 3.43652 42.5621L7.23802 40.2836C19.9894 32.0962 38.9839 16.4544 48.7154 5.12804L42.6422 4.55568ZM20.4937 71.4526C21.3417 71.9386 22.8249 72.8448 23.6589 73.2206C24.9671 73.8384 25.9323 74.2809 27.2897 74.7676C41.0121 72.2984 61.2901 55.2205 69.2879 43.9002C71.4187 40.8839 75.1498 34.7381 74.2178 31.0644C73.918 29.8838 73.51 27.5322 72.6239 26.6522C66.633 43.9497 38.32 67.7753 20.4937 71.4526ZM75.0003 35.8539C70.5276 50.2752 48.8423 66.7897 35.7682 73.2737C34.9352 73.6869 30.3798 75.4296 30.1887 75.6651C30.5751 75.8365 30.6848 75.9123 31.0988 75.9794C38.9101 77.629 43.1426 76.192 49.6853 71.6935C59.4972 64.947 79.1759 49.7444 75.0003 35.8539ZM3.51656 43.9872L5.05404 50.8692C5.88126 50.5589 6.94359 50.2032 7.70356 49.7919C10.301 48.6914 12.9662 47.1626 15.3459 45.6538C30.9001 35.7941 45.8197 23.4088 55.6844 7.71181C54.3038 7.10523 51.5816 5.86351 50.1578 5.71402L49.9558 5.89108C47.9588 7.65766 46.2466 9.89761 44.3374 11.7702C32.3544 23.522 17.8884 35.3839 3.51656 43.9872ZM43.7254 76.6139C53.9174 75.1755 62.0358 70.4381 68.2844 62.2616C69.9112 60.1333 74.1998 52.7504 73.7858 50.342C67.6212 59.9888 54.7468 71.1002 44.3208 76.0143C44.0224 76.1548 43.9968 76.1824 43.7503 76.4072L43.7254 76.6139ZM4.79434 31.184C6.56643 29.7951 40.8602 3.02229 39.9319 4.39556L39.4411 4.41682C27.6106 5.45093 19.7784 8.17488 11.6368 17.4848C7.83108 21.8365 6.21977 25.6829 4.46117 31.1112L4.64093 31.2853L4.79434 31.184ZM8.81387 59.5114C9.75911 61.0043 11.5806 64.5966 13.4526 64.6783C26.4218 63.2715 51.1556 42.2921 59.0284 31.866C62.5298 27.2286 65.5502 23.2955 67.7438 17.8044C66.6005 16.077 64.8072 13.9719 63.1698 12.699C55.7542 28.9942 39.3474 42.2964 24.6514 52.0066C20.0276 55.0618 14.1707 58.0226 8.81387 59.5114ZM68.7197 18.8737C61.1689 36.3721 37.4531 56.4154 19.8731 64.2594C18.1725 65.0181 15.3 65.7207 13.3978 65.8934C14.8817 67.1913 16.1709 68.3144 17.7459 69.5067C28.7128 74.6231 67.8106 40.4992 70.5655 28.3301C70.8412 27.112 71.5211 25.6484 71.8826 24.3801C71.3167 23.2702 69.5158 19.5806 68.7197 18.8737Z" fill="#F9F7F9" fill-opacity="0.32"/>
</svg>
