<svg width="80" height="80" viewBox="0 0 80 80" fill="none" xmlns="http://www.w3.org/2000/svg">
<path d="M35.7954 3L37.104 3.09223C40.6067 6.08867 47.5134 4.78614 49.1806 6.15139C49.7049 7.91873 53.9925 10.2384 55.9671 11.6707C56.5139 11.7341 56.9914 11.5537 57.5322 11.4125C58.3594 11.5758 58.4326 11.6677 58.9828 12.317C59.2438 13.5115 59.0107 13.1456 58.5888 14.532C60.4391 17.0211 62.4234 18.9152 64.4856 21.1443C64.9188 22.4784 64.19 25.1686 65.4529 26.277C67.0919 27.7187 70.4068 33.0331 72.8083 33.227C73.1172 33.2521 73.5203 33.8092 73.5203 33.8092C73.6983 36.9964 73.967 40.1847 74.6757 43.3019C74.9007 44.2664 76.3852 43.6956 75.9049 46.2728C75.3911 47.1588 74.8402 47.3638 73.9502 47.8906C73.48 49.7076 71.3137 55.4644 70.5042 57.6576C69.7519 58.2753 69.0634 58.335 68.0995 58.5527C66.8097 60.2335 65.1371 61.4452 63.4612 62.7031C63.1992 64.1066 63.1925 65.1248 61.7147 65.6278C58.6412 65.1677 56.6855 67.6054 54.0107 68.9042C53.5979 69.1045 53.5865 70.0592 53.5055 70.57C52.9826 71.185 53.2976 71.007 52.5711 71.189C51.7896 70.8993 51.625 70.8044 50.8095 70.7437C49.0506 72.2542 46.7597 74.0584 45.2073 75.6983C45.1956 76.3553 45.166 76.7128 45.0824 77.3644C44.0896 78.9845 43.0535 78.4174 41.66 77.7883C39.7224 78.3648 38.5042 78.3336 36.5511 78.572C35.1099 78.7481 35.0811 78.8594 34.3496 79.8004C33.8662 79.9567 33.1314 80.1388 32.773 79.839C30.4535 77.8993 27.4644 77.3469 24.6236 76.4726C24.7674 76.5169 23.6486 77.1705 22.992 77.2188C20.6047 75.9897 22.0039 74.7975 21.0443 73.9521C19.7556 72.8162 13.1737 68.9914 12.6152 68.0944C12.6252 65.9595 11.9596 66.1228 11.0332 64.4289C9.78652 62.1488 8.6691 59.8391 7.1997 57.6777C6.82924 57.1328 7.18928 56.2689 7.34412 55.6756C6.99986 54.3376 5.86531 51.2398 5.17074 50.0946C4.82548 49.9044 4.58702 49.7747 4.23806 49.5335C2.88083 48.5942 4.59978 46.6387 4.54873 46.2812C4.06273 42.8632 3.82964 39.4754 3.03029 36.0856C2.77705 35.0128 4.19104 34.28 4.32707 33.9725C4.77242 32.9647 6.71034 24.624 6.79498 24.507C8.70268 21.8667 12.1191 18.217 14.1595 15.4499C14.231 14.6092 14.2182 14.5441 14.5669 13.7932C15.5331 13.099 15.5533 13.1222 16.9451 13.2567L17.1245 13.2754C19.9884 11.2867 22.4291 9.2994 24.899 6.87508C24.9514 6.82344 33.5482 4.84147 34.327 4.67983C34.8866 3.78677 34.9712 3.64859 35.7954 3ZM44.1618 22.1564C42.4889 22.1715 40.5929 22.1447 38.9412 22.2591C38.3275 23.1689 38.1347 23.568 37.1621 24.1371C35.7827 24.2806 35.3434 23.3205 34.8728 23.2712C33.6422 23.1414 30.0357 24.3688 28.7957 24.7622C28.2872 25.5436 27.9406 26.1804 26.971 26.3223C24.015 26.7542 22.462 27.2435 19.9464 28.8629C19.723 29.4304 19.3223 30.7185 18.7154 30.8778C15.6789 31.6736 11.927 32.9654 12.7535 36.8734C12.1167 37.7101 11.3352 37.7768 10.3128 37.9039C8.22811 41.2706 8.05515 44.8371 6.52764 47.1391C6.69423 48.5046 7.10063 53.7664 8.43938 54.6045C9.33748 55.1669 10.5657 54.2507 11.3228 56.1971C11.1656 56.7132 10.6373 57.8769 11.0138 58.2314C13.3578 60.4408 15.9332 63.7323 19.3334 63.6015C20.1032 64.0281 20.2204 64.6103 20.5785 65.4497C22.816 66.6949 24.1437 67.2677 26.6536 67.9126L27.1762 68.0544C28.2926 67.3576 28.1042 67.2402 29.2471 67.2462C30.515 68.0119 30.2131 68.8365 30.8099 69.1279C32.5278 69.9677 36.7476 69.9788 38.5099 69.9405L38.7104 69.7816C40.2067 68.6101 41.3345 68.9123 43.1562 69.4529C47.5876 70.7672 55.294 65.1492 56.3694 60.9971C55.9019 59.8006 55.8885 60.2339 56.1652 59.2077C56.8843 58.2945 57.6692 58.5386 58.1959 58.0936C60.4989 56.1465 61.7214 52.1701 61.3452 49.2072C61.1236 47.4439 61.6509 47.3544 62.9305 46.4013C63.5082 43.9169 63.965 41.4058 64.2975 38.8768C63.6123 38.2252 63.2462 37.9787 63.0246 37.039C63.1455 36.0048 63.6123 35.4947 64.3311 34.7348C64.0288 31.8329 63.8844 30.4928 62.7256 27.7348C60.5479 26.0644 58.9062 25.2367 56.2274 24.6575C54.2129 24.2219 54.1232 24.4439 52.9742 22.6689C51.2845 22.4076 49.5625 22.1648 47.8906 21.8177C47.5 22.631 47.3979 23.0817 46.6176 23.4979C45.6443 23.5163 44.9524 22.8027 44.1618 22.1564ZM63.1052 50.5208C62.3058 52.915 59.6407 59.0712 59.2931 60.7849C56.6828 62.4529 54.3932 65.8736 52.5147 68.4378C54.2834 67.5028 56.0715 66.5929 57.7656 65.5299C60.8448 63.4322 60.1963 61.6028 62.8533 61.9234C65.6409 60.0783 71.9485 52.254 72.5463 48.7464C72.9695 46.2668 71.9585 45.701 73.5707 43.3851C73.1273 40.5576 73.2684 37.1061 70.38 36.0101C69.7217 34.7136 70.9039 33.5382 68.9593 31.6873C67.5621 30.3563 66.3664 28.6467 64.3546 28.0232C64.8349 30.3063 65.1472 32.5868 65.5335 34.8783C65.5771 35.1496 66.3362 35.8673 66.5713 36.0866C66.8702 37.7912 65.604 38.862 65.1842 40.3517C64.3747 43.2348 64.6602 46.2155 64.5091 49.1475C64.4856 49.6103 63.4981 50.2519 63.1052 50.5208ZM34.367 5.68959C32.8264 6.13428 28.1109 6.96227 27.4106 8.15012C26.9794 8.88221 26.9367 9.46037 25.9278 10.053C24.6824 10.2582 24.7338 9.43623 24.4345 9.51907C22.9789 9.92116 18.5388 13.4461 17.7173 14.3442C17.4503 15.3922 17.4758 16.2249 16.792 16.8638C15.2477 17.0412 14.5246 16.8061 13.4914 18.1402C12.4059 19.5416 10.1721 21.6038 9.60886 23.2712C9.86109 23.8772 9.91785 23.9701 10.2762 24.5254C10.2195 25.3346 10.1657 25.3655 9.68879 26.0573C8.96836 26.4829 8.89011 26.4953 8.06859 26.7063C6.98543 27.6879 5.78269 32.5633 5.52643 34.1117C5.94559 35.497 6.84603 36.3683 5.75045 37.9532C4.37777 39.9385 4.99341 42.1466 5.51971 44.6286C6.71975 42.5983 9.29011 37.6336 9.81406 35.4011L10.0838 35.2117C12.7851 33.2847 14.9323 30.5324 17.202 28.1503C18.1015 27.2063 18.3534 27.2791 19.4231 27.8649C20.8408 27.1982 23.0397 26.0104 24.411 25.5395C25.1217 23.2457 25.8623 22.3291 28.2503 23.6716C30.2245 23.7709 34.7486 21.3573 36.5972 20.4357C37.2843 20.093 38.214 21.0534 38.437 21.0709C40.0502 21.1983 42.4687 20.9116 44.0557 20.8505C45.6779 19.5644 46.7473 18.448 48.0733 20.7526C49.5746 21.1926 56.1384 21.1624 56.6344 22.0122C56.8225 22.3342 56.887 22.7289 56.9666 23.0897C58.2382 23.7417 62.5611 26.2505 63.6694 26.0298L63.9986 25.6432C63.3403 23.9593 62.1312 23.2467 60.6225 22.4573C60.9825 21.7044 61.4998 20.9233 61.3721 20.1594C60.1979 18.3897 58.303 14.9713 56.2401 14.7071C54.9212 13.6172 54.4349 11.775 53.0625 10.7223C52.5641 10.34 50.1728 8.99557 49.7331 8.99423C47.5624 8.98719 47.0556 9.6304 46.086 6.7946L38.7917 5.39548C36.9491 6.98911 36.3288 7.59242 34.367 5.68959ZM46.6254 73.0496C48.1109 71.8454 48.9227 70.959 50.0723 69.414C47.1184 70.2621 42.9957 70.4107 41.3362 72.0295C40.2342 72.1626 32.068 69.7235 30.1335 70.6924C29.6176 70.9506 28.5005 71.0569 27.8919 70.9181C27.0771 70.4087 26.9868 69.9885 26.5743 69.1112C24.6206 68.4042 17.9295 66.5839 17.0368 66.1348C15.9617 66.7744 16.0386 66.5011 15.6719 67.4656C15.7871 68.6098 16.8504 69.8687 17.6172 70.3288C19.4295 71.4161 21.569 73.9018 23.7091 73.3692C24.3556 73.2083 25.3316 74.9105 25.6987 75.6175C27.2098 76.1936 30.1788 77.5824 31.6452 76.7493C33.4545 75.7214 34.0805 76.7476 35.553 77.4331C36.7345 77.9834 39.945 77.082 41.2274 76.7785C42.4355 75.0943 44.2249 75.1483 46.6254 73.0496ZM16.3624 65.2428C16.6207 63.8242 12.9087 61.8399 11.9817 60.5944C11.6936 60.2074 10.0062 58.7117 9.54269 58.5061C10.2359 60.7111 11.5639 64.4695 13.6654 65.7519C14.6001 66.3223 15.5261 65.717 16.3624 65.2428Z" fill="#F9F7F9" fill-opacity="0.32"/>
</svg>
