<svg width="80" height="80" viewBox="0 0 80 80" fill="none" xmlns="http://www.w3.org/2000/svg">
<path d="M40.3018 0C51.4358 5.98743 64.0696 13.3326 75 19.7019L74.9679 59.9011C68.7474 63.8805 61.1165 67.8076 54.7175 71.7477C52.1607 73.3241 42.705 78.9781 40.2947 80C32.1388 75.7405 24.1258 70.6825 16.0734 66.2037C12.4883 64.2091 8.57462 61.9752 5.16087 59.7444C4.70736 46.6245 5.38583 32.511 5.11087 19.22C16.6519 13.379 28.7679 6.18198 40.3018 0ZM56.6421 29.2112C55.0317 28.2938 40.7625 19.8047 39.9626 19.6235L23.2545 29.2861C25.6791 30.6067 38.8128 38.4561 40.2554 38.6971C45.5117 35.9198 51.4894 32.2848 56.6421 29.2112ZM41.5052 58.1027L58.0098 48.4002C58.0277 46.4499 58.3954 30.848 57.7277 30.1561C52.7035 33.4662 46.4651 36.7856 41.2088 39.993C41.1695 43.9355 41.1553 47.8781 41.1588 51.8207C41.1624 53.2547 41.0839 56.5755 41.2731 57.8796L41.5052 58.1027ZM41.216 59.8739C41.2017 65.2372 40.9803 72.1142 41.2731 77.3577L41.6052 77.6785C45.6296 75.3689 54.7174 70.4182 58.0883 67.954C58.0812 65.7486 58.2455 50.5396 57.8562 50.0794C53.6462 53.031 45.9045 57.1818 41.216 59.8739ZM22.6189 68.1977C27.2003 71.2425 34.5491 75.1362 39.5662 77.939C39.5591 72.0863 39.4591 65.8992 39.5698 60.0637L28.2144 53.6108C26.9789 52.9076 23.9151 51.0511 22.7831 50.5705C22.7653 55.6522 22.9974 63.3226 22.6189 68.1977ZM39.5305 40.2459C34.4956 37.3211 27.8431 33.2572 22.7546 30.6662L22.7474 48.8144C28.393 52.0369 33.8493 55.2435 39.5734 58.3564C39.5948 52.3194 39.5841 46.2825 39.5305 40.2459ZM59.5346 66.962C60.3452 67.006 72.0291 60.0441 73.4574 59.2167C73.4645 56.7085 73.8216 42.6799 73.311 41.2555C68.8474 43.9713 63.691 46.608 59.4524 49.3094C59.531 55.1934 59.5596 61.0777 59.5346 66.962ZM54.7532 9.78495C52.8427 8.80017 40.9089 1.73824 40.084 1.81455C35.274 4.39286 30.4819 7.00762 25.7112 9.65881C27.3145 10.592 39.2484 17.6801 40.284 17.7853C45.0439 15.0172 49.8682 12.3495 54.7532 9.78495ZM59.4346 29.349C59.4881 34.5985 59.2775 42.1062 59.5381 47.0793L59.8881 47.3113C64.4445 44.7818 69.0331 42.0512 73.5859 39.5939C73.4467 37.6587 73.6395 21.7196 73.4003 21.4718C68.9081 23.9157 63.7768 26.6556 59.4346 29.349ZM21.7976 28.1834C24.6507 27.3465 35.0455 20.4536 38.5807 18.7965C35.6026 17.0981 26.8361 12.3148 24.39 10.3872C19.2087 13.2711 12.374 17.3175 7.12485 19.8641C9.78872 21.4604 19.3836 27.1323 21.7976 28.1834ZM21.1798 49.5029C16.7483 46.8438 11.1992 43.5873 6.67849 41.1338C6.67849 47.0209 6.55705 53.3015 6.69631 59.1552C10.9528 61.5761 16.7483 65.1612 21.0191 67.249L21.2834 67.1796L21.2583 66.4911C21.2548 60.9003 21.3333 55.0744 21.1798 49.5029ZM57.9241 28.1879C62.1413 26.2912 68.2225 22.5525 72.4575 20.2763C71.0078 19.1839 56.8207 10.8103 56.0351 10.8711C51.0037 13.3051 46.2438 16.0542 41.416 18.8343C46.8008 21.4154 52.5428 25.4989 57.9241 28.1879ZM6.66061 21.4254C6.66776 27.3062 6.53209 33.7226 6.68921 39.5557C8.3461 40.4078 20.7084 47.6915 21.2262 47.6241C21.2548 41.9175 21.1477 35.554 21.3191 29.8866C17.6125 27.5083 10.6778 23.3654 6.66061 21.4254Z" fill="#F9F7F9" fill-opacity="0.32"/>
</svg>
