<svg width="80" height="80" viewBox="0 0 80 80" fill="none" xmlns="http://www.w3.org/2000/svg">
<path d="M38.6073 6.02907C57.3729 5.25978 73.2073 19.8514 73.9713 38.6173C74.7353 57.3828 60.1389 73.2134 41.373 73.9717C22.6148 74.7301 6.79225 60.1411 6.02867 41.3829C5.26508 22.625 19.8497 6.79806 38.6073 6.02907ZM61.175 64.8809C59.2216 65.8153 57.3418 66.8317 55.1757 67.1052C22.056 71.0182 18.0663 17.3287 48.8347 13.0305C53.5291 12.3749 57.2333 13.4843 61.5428 15.2588C55.8196 10.9312 49.7872 9.3333 42.6542 10.2123C35.2156 11.1223 29.3525 14.3518 24.7396 20.2387C19.4201 27.0906 17.0724 35.7902 18.2225 44.3881C20.226 60.2338 33.5094 72.2417 49.8665 69.9067C53.4461 69.3958 58.5084 67.4736 61.175 64.8809ZM54.8966 69.8362C51.5873 70.7736 50.1976 71.2015 46.7798 71.2435C43.0202 71.2453 40.0733 71.0569 36.4481 69.7514C23.8895 65.2286 16.6529 52.995 16.7058 39.885C16.6842 31.0644 20.2251 22.6086 26.5254 16.4351C32.4134 10.6035 41.8877 7.8488 50.2788 9.10806C51.0826 9.22873 53.2658 10.0777 53.9055 9.90929C53.3531 8.94941 50.9902 8.52266 49.8157 8.20564C45.5202 7.00352 41.0398 6.60443 36.5995 7.02784C18.0964 8.75275 6.28547 25.6393 8.02674 43.5899C8.93884 52.4375 13.3202 60.5633 20.2111 66.1873C27.0766 71.7985 34.9967 74.0766 43.7879 73.1821C47.6702 72.786 51.4411 71.6502 54.8966 69.8362ZM69.7332 27.262C68.7056 25.1347 68.3007 24.3517 66.6231 22.7238C63.2302 18.3828 55.7393 17.4624 50.9601 19.7706C38.6824 25.7003 37.2343 45.5905 45.418 55.3916C52.9691 64.4353 63.46 63.3247 69.3082 53.2348C65.1565 56.9056 60.7651 57.8539 56.7639 53.5305C53.1898 49.6686 54.6391 44.0458 49.9875 41.4963C48.4662 40.7151 47.1373 40.5334 45.5761 39.9118C47.7946 39.3832 51.2605 38.768 52.2005 36.4304C55.2608 28.8198 55.7634 20.8077 66.6973 23.9739C67.6343 25.0469 68.6634 26.0064 69.7332 27.262ZM59.1274 54.0777C63.9671 56.563 67.8185 54.3898 69.9968 49.6838C72.6306 43.9929 72.4859 37.2604 70.4498 31.4116C69.2541 28.0046 66.5483 24.0712 62.475 24.3122C60.0145 24.7596 58.4664 25.4614 56.9794 27.6408C55.6977 29.5131 55.2386 31.8289 55.7095 34.0486C56.8749 39.5632 59.6494 38.1525 62.5285 40.0577L62.5343 40.313C57.6674 41.3635 54.5482 42.6024 55.6794 48.9169C56.0534 51.0026 57.5246 52.7217 59.1274 54.0777ZM65.7232 20.1736C61.9314 16.3153 57.5291 14.0868 51.9819 14.0627C51.7107 14.0627 51.4395 14.0789 51.1702 14.1111C47.1914 14.295 43.7021 14.9363 40.3272 17.1737C26.3892 26.4137 25.3276 49.7406 37.58 60.7822C45.7108 68.1095 57.6991 68.2545 65.1978 60.1226L62.7255 61.5189C43.4075 68.3608 34.0524 41.5996 41.7862 27.4283C46.9306 18.0016 56.5699 14.0688 65.7232 20.1736Z" fill="#F9F7F9" fill-opacity="0.32"/>
</svg>
