<svg width="80" height="80" viewBox="0 0 80 80" fill="none" xmlns="http://www.w3.org/2000/svg">
<path d="M39.4476 16.3044C46.071 11.0085 62.0553 -0.406117 70.5713 3.9839C82.2308 9.99475 67.044 33.8828 62.2495 40.0984C67.6313 46.9232 78.227 63.3236 74.046 73.0349C73.0766 75.2865 70.715 76.228 68.4686 76.9232C57.8202 77.8566 47.4981 70.0948 39.5503 63.9512C33.708 68.9409 22.4674 76.0599 14.9353 76.6025C-7.94152 78.2501 11.3285 47.0726 16.7283 40.3816C11.7233 33.0628 0.958738 17.1927 5.11116 7.19246C6.0495 4.93279 8.32736 3.9853 10.5533 3.27812L10.7899 3.25311C20.4604 2.33275 32.2827 10.463 39.4476 16.3044ZM40.6493 62.9882C45.7715 67.1393 50.3439 70.4271 56.4411 73.1149C60.1955 74.5352 66.522 77.1353 70.0564 74.9725C80.139 68.8027 65.8983 46.6205 61.2267 41.3637C54.2258 50.5168 49.3024 55.5651 40.6493 62.9882ZM17.6422 41.5022C12.0994 49.106 8.33443 55.6292 5.9658 64.764C2.69451 77.3795 15.1751 76.9982 23.0809 72.7611C29.2547 69.7213 33.108 67.4067 38.4933 62.9452C29.9642 56.002 24.5733 50.0109 17.6422 41.5022ZM60.4918 40.005C53.2101 30.9128 48.3754 25.7712 39.42 18.2498C32.0687 24.3684 24.0746 32.5382 18.4598 40.1329C25.5914 48.8946 30.6486 54.6902 39.5768 61.9364C48.968 54.3315 53.1589 48.9982 60.4918 40.005ZM9.86748 4.8891C-1.78105 10.2745 13.1833 32.5382 17.544 38.9828C19.7725 35.9902 22.7595 32.3546 25.3428 29.6436C28.79 25.8744 34.2636 20.5767 38.3323 17.3037C30.1659 11.0571 20.6151 3.6481 9.86748 4.8891ZM64.6817 4.64457C56.9822 5.1583 46.3087 12.481 40.5042 17.3308C45.7175 21.3833 52.0433 27.7387 56.3419 32.6446C58.1486 34.751 59.8032 36.6481 61.4231 38.8979C65.8528 32.1531 70.1288 25.6799 72.4441 17.8618C74.3801 11.3235 73.6236 3.24641 64.6817 4.64457Z" fill="#F9F7F9" fill-opacity="0.32"/>
</svg>
