<svg width="25" height="24" viewBox="0 0 25 24" fill="none" xmlns="http://www.w3.org/2000/svg">
<path d="M4.99734 2.8252V9.41932C5.91765 8.2223 7.02084 7.61976 8.30024 7.61976C8.95919 7.61976 9.54929 7.75706 10.0787 8.02925C10.6095 8.29984 11.0064 8.64716 11.2744 9.06879C11.5439 9.49445 11.7261 9.9605 11.8245 10.4742C11.9223 10.9855 11.9711 11.7811 11.9711 12.8602V19.9107H9.11172V13.5605C9.11172 12.3004 9.05989 11.5024 8.95105 11.1632C8.84908 10.8309 8.64679 10.5461 8.37724 10.3555C8.10182 10.1527 7.75901 10.0526 7.34513 10.0526C6.87128 10.0526 6.44629 10.1818 6.07683 10.4387C5.69923 10.6971 5.42825 11.0832 5.25648 11.5993C5.08174 12.1163 4.99438 12.8796 4.99734 13.89L4.99438 19.9107H2.13867V2.8252H4.99734ZM16.2565 2.8252V9.41932C17.1776 8.2223 18.28 7.61976 19.5587 7.61976C20.2154 7.61976 20.81 7.75706 21.3401 8.02925C21.8687 8.29984 22.2656 8.64716 22.5321 9.06879C22.8011 9.49163 22.9883 9.96983 23.0822 10.4742C23.1807 10.9855 23.2296 11.7811 23.2296 12.8602V19.9107H20.3731V13.5605C20.3731 12.3004 20.3191 11.5024 20.2102 11.1632C20.1083 10.8304 19.9053 10.5455 19.635 10.3555C19.3625 10.1527 19.0167 10.0526 18.6028 10.0526C18.1297 10.0526 17.7047 10.1818 17.3345 10.4387C16.9621 10.6971 16.6897 11.0832 16.5157 11.5993C16.3439 12.1163 16.2565 12.8796 16.2565 13.89V19.9107H13.4008V2.8252H16.2565Z" fill="white"/>
</svg>
