<svg width="197" height="48" viewBox="0 0 197 48" fill="none" xmlns="http://www.w3.org/2000/svg">
<mask id="mask0_123_457" style="mask-type:luminance" maskUnits="userSpaceOnUse" x="0" y="0" width="197" height="47">
<path d="M196.994 0H0V46.8402H196.994V0Z" fill="white"/>
</mask>
<g mask="url(#mask0_123_457)">
<path fill-rule="evenodd" clip-rule="evenodd" d="M114.85 28.6394V26.5579C114.85 23.002 112.737 21.0444 108.896 21.0444H99.6596V17.6743H111.616C112.644 17.6743 113.474 16.8442 113.474 15.8158V14.4777H95.9922V29.7669C95.9922 32.1891 97.956 34.1529 100.378 34.1529H108.896C112.737 34.1529 114.85 32.1953 114.85 28.6394ZM99.6596 29.2527V24.5879H108.884C111.083 24.5879 111.182 26.3597 111.182 26.4278V28.7695C111.182 28.881 111.052 30.6156 108.884 30.6156H101.023C100.273 30.6156 99.6596 30.0085 99.6596 29.2527Z" fill="white"/>
<path fill-rule="evenodd" clip-rule="evenodd" d="M67.9272 14.4838H50.4512V29.773C50.4512 32.1952 52.415 34.159 54.8372 34.159H63.3615C67.2024 34.159 69.3149 32.2014 69.3149 28.6455V26.564C69.3149 23.0081 67.2024 21.0505 63.3615 21.0505H54.1248V17.6804H66.0749C67.1033 17.6804 67.9334 16.8503 67.9334 15.8219V14.4838H67.9272ZM54.1186 29.2526V24.5878H63.343C65.5422 24.5878 65.6413 26.3596 65.6413 26.4277V28.7694C65.6413 28.8809 65.5112 30.6155 63.343 30.6155H55.4815C54.7319 30.6155 54.1248 30.0084 54.1248 29.2526H54.1186Z" fill="white"/>
<path fill-rule="evenodd" clip-rule="evenodd" d="M92.6696 28.6394V27.704H92.6634C92.6201 25.9942 91.9324 24.526 90.6996 23.8631C91.6289 23.3737 92.6758 22.209 92.6758 20.6293V19.0062C92.5519 16.2185 90.6129 14.4777 87.4783 14.4777H72.6289V29.7669C72.6289 32.1891 74.5927 34.1529 77.0149 34.1529H86.7225C90.5633 34.1529 92.6758 32.1953 92.6758 28.6394H92.6696ZM76.2901 22.0666V18.0274H87.2057C88.1969 18.0274 89.0022 18.8328 89.0022 19.824V20.2824C89.0022 20.2824 89.0208 21.0692 88.5128 21.5895C88.2031 21.9055 87.757 22.0728 87.1809 22.0728H76.2901V22.0666ZM76.2901 29.2527V25.6596H87.1809C89.0146 25.7773 89.0022 27.642 89.0022 27.7102V28.7695C89.0022 28.881 88.8721 30.6156 86.6977 30.6156H77.6468C76.8972 30.6156 76.2839 30.0085 76.2839 29.2527H76.2901Z" fill="white"/>
<path fill-rule="evenodd" clip-rule="evenodd" d="M130.961 29.6367H132.931V21.8806H138.692V19.9106H130.961V29.6367ZM165.43 24.0178H160.982C160.499 24.0178 160.108 23.6213 160.108 23.1381V19.9106H158.138V23.1381C158.138 24.7117 159.414 25.9878 160.988 25.9878H165.436V26.787C165.436 27.2702 165.046 27.6667 164.556 27.6667H158.752V29.6367H164.556C166.13 29.6367 167.406 28.3605 167.406 26.787V19.9106H165.436V24.0178H165.43ZM151.231 24.7364C151.231 25.2196 150.841 25.6161 150.351 25.6161H145.637V21.8867H150.351C150.834 21.8867 151.231 22.2832 151.231 22.7664V24.7426V24.7364ZM150.351 19.9106H143.661V29.6367H145.631V27.5799H150.345C151.919 27.5799 153.195 26.3038 153.195 24.7302V22.754C153.195 21.1805 151.919 19.9044 150.345 19.9044L150.351 19.9106ZM187.348 19.9106V29.6367H189.318V21.8806H195.011V29.6367H196.981V19.9106H187.341H187.348ZM172.281 29.6367H174.251V21.8806H179.945V29.6367H181.915V19.9106H172.275V29.6367H172.281Z" fill="white"/>
<path d="M124.167 11.981H121.875V37.5662H124.167V11.981Z" fill="white"/>
<path fill-rule="evenodd" clip-rule="evenodd" d="M43.6745 30.2748V16.5653C43.6745 13.0156 41.7665 9.71371 38.6938 7.93575L27.6296 1.54874C25.8454 0.520377 23.8382 0 21.8373 0C19.8363 0 17.8291 0.514182 16.045 1.54874L4.98075 7.93575C1.90805 9.70752 0 13.0156 0 16.5653V30.2748C0 33.8245 1.90805 37.1264 4.98075 38.9044L16.045 45.2914C17.7981 46.3012 19.7991 46.8402 21.8373 46.8402C23.8754 46.8402 25.8764 46.3074 27.6296 45.2914L38.6938 38.9044C41.7665 37.1326 43.6745 33.8245 43.6745 30.2748ZM11.7023 14.5334L20.0097 9.73849C21.1434 9.18094 22.4692 9.18714 23.5966 9.74469C25.418 10.7916 27.2393 11.8386 29.0668 12.8793C30.7147 14.0006 31.551 13.6351 32.9448 12.6687L23.8506 7.44016C22.5992 6.71535 21.0629 6.70915 19.8053 7.42777L19.7062 7.48352L8.3756 13.9635L5.97195 12.5696L18.5911 5.32148C19.5885 4.75154 20.7036 4.46038 21.8125 4.46038C22.9214 4.46038 24.0613 4.75154 25.0648 5.33387L35.2556 11.2501L37.7459 12.6997L33.3289 15.2396C32.6908 15.5742 31.1297 15.791 30.4854 15.2644C30.9377 16.3114 30.1695 17.1477 29.2898 17.5627L24.7365 20.1708C23.0267 21.1496 20.9266 21.162 19.2106 20.1956L15.6113 18.1698L12.805 16.5406L10.5191 15.2148L11.7023 14.5334ZM23.863 17.8787C23.2745 18.2194 22.6178 18.3867 21.955 18.3867C21.2921 18.3867 20.6602 18.2256 20.0779 17.8911L15.3635 15.2334L20.9576 12.0182C21.4903 11.7085 22.1532 11.7147 22.686 12.0182L26.7189 14.3599C27.6296 14.8679 28.4721 15.3635 26.6941 16.2618C25.7587 16.8069 24.817 17.3397 23.863 17.8725V17.8787ZM17.0547 43.4267L6.10824 37.1079C3.64884 35.6892 2.11868 33.044 2.11868 30.2005V16.6335C2.11868 13.7962 3.64884 11.1447 6.10824 9.7261L17.0486 3.40723C18.4982 2.57091 20.1522 2.13107 21.8373 2.13107C23.5223 2.13107 25.1764 2.57091 26.626 3.40723L37.5725 9.7261C40.0319 11.1447 41.562 13.79 41.562 16.6335V30.2005C41.562 33.0378 40.0319 35.683 37.5725 37.1079L26.626 43.4267C25.1516 44.2816 23.4913 44.7091 21.8373 44.7091C20.1832 44.7091 18.523 44.2816 17.0486 43.4267H17.0547ZM4.74535 29.8536L4.71437 14.5891L17.4884 22.0045C18.4858 22.5807 19.2911 23.4108 19.8487 24.3834C20.4062 25.356 20.7098 26.4649 20.7098 27.6234C20.6974 32.5669 20.685 37.4672 20.6726 42.3674L18.238 40.9425L18.2814 27.611C18.2814 26.1737 17.5132 24.8294 16.268 24.1046L7.16758 18.8203V21.2735L14.0874 25.2879C14.7254 25.6596 15.2458 26.1923 15.6051 26.8118C15.9644 27.4375 16.1627 28.1499 16.1565 28.8933L16.0697 39.6664L7.5145 34.6608C5.80469 33.6573 4.75154 31.8297 4.74535 29.8474V29.8536ZM9.08182 32.759C7.90478 32.0775 7.17997 30.8138 7.17997 29.4571V24.0922L12.8669 27.4003C13.3997 27.7101 13.728 28.2862 13.728 28.8995L13.7095 35.4538L9.08182 32.7652V32.759ZM23.0329 42.2435L23.101 27.4623C23.1134 24.6993 24.3772 22.8966 26.7747 21.6019L38.954 14.8246L38.9106 33.2608L36.637 34.5122L36.4884 19.1363L27.1835 24.3896C25.9507 25.2693 25.4551 26.341 25.4613 27.7844L30.6403 24.8604C31.1359 24.5816 31.5819 24.2781 32.1333 24.1294C33.5086 23.7639 34.0909 24.3772 34.1219 25.7091L34.0971 35.8875C33.0502 36.4822 23.3736 42.3922 23.0391 42.2435H23.0329ZM25.4675 38.0061L25.4861 30.473L30.758 27.4623C31.2784 27.1464 31.7492 27.4623 31.743 28.1004L31.7926 34.4936L25.4675 38.0123V38.0061Z" fill="white"/>
</g>
</svg>
