<svg width="25" height="24" viewBox="0 0 25 24" fill="none" xmlns="http://www.w3.org/2000/svg">
<path d="M7.41862 4.58327C7.41838 5.0695 7.22499 5.53572 6.881 5.87937C6.53701 6.22301 6.0706 6.41593 5.58437 6.41569C5.09814 6.41545 4.63192 6.22206 4.28828 5.87807C3.94463 5.53408 3.75171 5.06767 3.75195 4.58144C3.7522 4.09521 3.94558 3.62899 4.28957 3.28535C4.63356 2.9417 5.09997 2.74878 5.5862 2.74902C6.07243 2.74927 6.53865 2.94265 6.8823 3.28664C7.22594 3.63063 7.41886 4.09704 7.41862 4.58327ZM7.47362 7.77327H3.80695V19.2499H7.47362V7.77327ZM13.267 7.77327H9.61862V19.2499H13.2303V13.2274C13.2303 9.87244 17.6028 9.56077 17.6028 13.2274V19.2499H21.2236V11.9808C21.2236 6.32494 14.752 6.53577 13.2303 9.31327L13.267 7.77327Z" fill="white"/>
</svg>
