<svg width="25" height="24" viewBox="0 0 25 24" fill="none" xmlns="http://www.w3.org/2000/svg">
<path d="M2.45723 11.8284C7.61703 9.58027 11.0581 8.09789 12.7804 7.38129C17.6967 5.33671 18.7175 4.98169 19.3833 4.96989C19.5308 4.96694 19.8573 5.00332 20.0697 5.17641C20.2487 5.32098 20.2979 5.51767 20.3215 5.65535C20.3451 5.79303 20.3746 6.10675 20.351 6.35162C20.0854 9.15148 18.9319 15.9441 18.3447 19.0793C18.0969 20.405 17.6091 20.8495 17.1351 20.8938C16.1074 20.9882 15.3275 20.2152 14.3323 19.5622C12.7735 18.5404 11.8934 17.9041 10.3808 16.9079C8.63325 15.7563 9.76618 15.1229 10.7624 14.0884C11.023 13.8179 15.5518 9.69828 15.6403 9.32457C15.6501 9.27737 15.6609 9.1033 15.5577 9.01184C15.4544 8.91939 15.302 8.95086 15.1908 8.97643C15.0342 9.01184 12.5454 10.6568 7.72455 13.9113C7.01713 14.3965 6.37723 14.6329 5.80487 14.6204C5.17252 14.6066 3.956 14.2634 3.0532 13.9694C1.94388 13.6084 1.06271 13.4186 1.13942 12.806C1.17941 12.4873 1.61869 12.1615 2.45723 11.8284Z" fill="white"/>
</svg>
